<svg width="24.000000" height="24.000000" viewBox="0 0 24 24" fill="none" xmlns="http://www.w3.org/2000/svg" xmlns:xlink="http://www.w3.org/1999/xlink">
	<desc>
			Created with Pixso.
	</desc>
	<defs>
		<clipPath id="clip1_285">
			<rect id="Bold / Time / Calendar Minimalistic" rx="5.000000" width="24.000000" height="24.000000" fill="white" fill-opacity="0"/>
		</clipPath>
	</defs>
	<g clip-path="url(#clip1_285)">
		<path id="Vector" d="M7 1.75C7.41422 1.75 7.75 2.08582 7.75 2.5L7.75 4.01288C8.41525 4 9.16098 4 10 4L14 4C14.8391 4 15.5847 4 16.25 4.01288L16.25 2.5C16.25 2.08582 16.5858 1.75 17 1.75C17.4142 1.75 17.75 2.08582 17.75 2.5L17.75 4.07928C19.1893 4.19452 20.1342 4.47736 20.8284 5.17157C21.5226 5.86578 21.8055 6.81067 21.9207 8.25L2.07925 8.25C2.19452 6.81067 2.47739 5.86578 3.17157 5.17157C3.86578 4.47736 4.81067 4.19452 6.25 4.07928L6.25 2.5C6.25 2.08582 6.58578 1.75 7 1.75ZM22 12L22 14C22 17.7712 22 19.6569 20.8284 20.8284C19.6569 22 17.7712 22 14 22L10 22C6.22876 22 4.34314 22 3.17157 20.8284C2 19.6569 2 17.7712 2 14L2 12C2 11.1609 2 10.4153 2.01291 9.75L21.9871 9.75C22 10.4153 22 11.1609 22 12Z" fill="#000000" fill-opacity="1.000000" fill-rule="evenodd"/>
	</g>
</svg>
