<svg width="36.000000" height="36.000000" viewBox="0 0 36 36" fill="none" xmlns="http://www.w3.org/2000/svg" xmlns:xlink="http://www.w3.org/1999/xlink">
	<desc>
			Created with Pixso.
	</desc>
	<defs>
		<clipPath id="clip2_539">
			<rect id="Bold / Call / Phone " width="24.000000" height="24.000000" transform="translate(5.000000 7.000000)" fill="white" fill-opacity="0"/>
		</clipPath>
	</defs>
	<circle id="Ellipse 20" cx="18.000000" cy="18.000000" r="18.000000" fill="#E9E9E9" fill-opacity="1.000000"/>
	<g clip-path="url(#clip2_539)">
		<path id="Vector" d="M21.5562 19.9061L21.1007 20.359C21.1007 20.359 20.0182 21.4354 17.0631 18.4972C14.1082 15.559 15.1907 14.4825 15.1907 14.4825L15.4775 14.1974C16.1841 13.4949 16.2507 12.3669 15.6343 11.5435L14.3733 9.85913C13.6102 8.83997 12.136 8.70532 11.2615 9.57483L9.69189 11.1355C9.25818 11.5667 8.96765 12.1256 9.00293 12.7456C9.09302 14.3318 9.81067 17.7446 13.8153 21.7266C18.0621 25.9492 22.0469 26.1171 23.6763 25.9651C24.1917 25.9171 24.6399 25.6545 25.0011 25.2954L26.4216 23.8829C27.3806 22.9296 27.1102 21.2949 25.8833 20.6279L23.9728 19.5894C23.1672 19.1515 22.1858 19.2802 21.5562 19.9061Z" fill="#000000" fill-opacity="1.000000" fill-rule="nonzero"/>
	</g>
</svg>
