<svg width="20.000000" height="20.000000" viewBox="0 0 20 20" fill="none" xmlns="http://www.w3.org/2000/svg" xmlns:xlink="http://www.w3.org/1999/xlink">
	<desc>
			Created with Pixso.
	</desc>
	<defs>
		<clipPath id="clip2_547">
			<rect id="Bold / Time / Clock Circle" width="20.000000" height="20.000000" fill="white" fill-opacity="0"/>
		</clipPath>
	</defs>
	<g clip-path="url(#clip2_547)">
		<path id="Vector" d="M18.3334 9.99995C18.3334 14.6023 14.6024 18.3333 10 18.3333C5.39764 18.3333 1.66669 14.6023 1.66669 9.99995C1.66669 5.39758 5.39764 1.66663 10 1.66663C14.6024 1.66663 18.3334 5.39758 18.3334 9.99995Z" fill="#000000" fill-opacity="1.000000" fill-rule="evenodd"/>
		<path id="Vector" d="M10 6.04163C10.3452 6.04163 10.625 6.32144 10.625 6.66663L10.625 9.74107L12.5253 11.6414C12.7693 11.8854 12.7693 12.2812 12.5253 12.5252C12.2812 12.7693 11.8855 12.7693 11.6414 12.5252L9.55811 10.4419C9.44086 10.3247 9.375 10.1657 9.375 9.99995L9.375 6.66663C9.375 6.32144 9.65485 6.04163 10 6.04163Z" fill="#FFFFFF" fill-opacity="1.000000" fill-rule="evenodd"/>
	</g>
</svg>
