<svg width="12.000000" height="12.000000" viewBox="0 0 12 12" fill="none" xmlns="http://www.w3.org/2000/svg" xmlns:xlink="http://www.w3.org/1999/xlink">
	<desc>
			Created with Pixso.
	</desc>
	<defs>
		<clipPath id="clip1_330">
			<rect id="Frame" width="12.000000" height="12.000000" fill="white" fill-opacity="0"/>
		</clipPath>
	</defs>
	<rect id="Frame" width="12.000000" height="12.000000" fill="#FFFFFF" fill-opacity="0"/>
	<g clip-path="url(#clip1_330)">
		<path id="Vector" d="M6 3.5C6.48987 3.5 6.96887 3.64386 7.37769 3.91376C7.78638 4.18365 8.10693 4.56769 8.29932 5.01819C8.4917 5.46869 8.54749 5.96576 8.45972 6.44763C8.37207 6.92957 8.14465 7.37512 7.80591 7.72894C7.46716 8.08276 7.03186 8.32922 6.55432 8.43781C6.07666 8.54639 5.57764 8.51227 5.11914 8.33966C4.66077 8.16699 4.26318 7.86353 3.97571 7.46686C3.68835 7.07025 3.5238 6.5979 3.50244 6.10852L3.5 6L3.50244 5.89148C3.53052 5.24786 3.80579 4.63989 4.27112 4.19434C4.73645 3.74878 5.35571 3.50006 6 3.5Z" fill="#000000" fill-opacity="1.000000" fill-rule="nonzero"/>
		<path id="Vector" d="M7.37769 3.91376C7.78638 4.18365 8.10693 4.56769 8.29932 5.01819C8.4917 5.46869 8.54749 5.96576 8.45972 6.44763C8.37207 6.92957 8.14465 7.37512 7.80591 7.72894C7.46716 8.08276 7.03186 8.32922 6.55432 8.43781C6.07666 8.54639 5.57764 8.51227 5.11914 8.33966C4.66077 8.16699 4.26318 7.86353 3.97571 7.46686C3.68835 7.07025 3.5238 6.5979 3.50244 6.10852L3.5 6L3.50244 5.89148C3.53052 5.24786 3.80579 4.63989 4.27112 4.19434C4.73645 3.74878 5.35571 3.50006 6 3.5C6.48987 3.5 6.96887 3.64386 7.37769 3.91376Z" stroke="#000000" stroke-opacity="1.000000" stroke-width="0.000000" stroke-linejoin="round"/>
	</g>
</svg>
