<svg width="40.000000" height="40.000000" viewBox="0 0 40 40" fill="none" xmlns="http://www.w3.org/2000/svg" xmlns:xlink="http://www.w3.org/1999/xlink">
	<desc>
			Created with Pixso.
	</desc>
	<defs>
		<clipPath id="clip2_520">
			<rect id="mingcute:facebook-fill" width="30.000000" height="30.000000" transform="translate(5.000000 5.000000)" fill="white" fill-opacity="0"/>
		</clipPath>
	</defs>
	<circle id="Ellipse 11" cx="20.000000" cy="20.000000" r="20.000000" fill="#E9E9E9" fill-opacity="1.000000"/>
	<rect id="mingcute:facebook-fill" width="30.000000" height="30.000000" transform="translate(5.000000 5.000000)" fill="#FFFFFF" fill-opacity="0"/>
	<g clip-path="url(#clip2_520)">
		<path id="Vector" d="M21.875 32.36C27.8888 31.455 32.5 26.2662 32.5 20C32.5 13.0962 26.9037 7.5 20 7.5C13.0963 7.5 7.5 13.0962 7.5 20C7.5 26.2662 12.1112 31.4563 18.125 32.36L18.125 23.75L16.25 23.75C15.7527 23.75 15.2758 23.5525 14.9242 23.2008C14.5725 22.8492 14.375 22.3723 14.375 21.875C14.375 21.3777 14.5725 20.9008 14.9242 20.5492C15.2758 20.1975 15.7527 20 16.25 20L18.125 20L18.125 17.5C18.125 16.3397 18.5859 15.2269 19.4064 14.4064C20.2269 13.5859 21.3397 13.125 22.5 13.125L23.125 13.125C23.6223 13.125 24.0992 13.3225 24.4508 13.6742C24.8025 14.0258 25 14.5027 25 15C25 15.4973 24.8025 15.9742 24.4508 16.3258C24.0992 16.6775 23.6223 16.875 23.125 16.875L22.5 16.875C22.3342 16.875 22.1753 16.9408 22.058 17.0581C21.9409 17.1753 21.875 17.3342 21.875 17.5L21.875 20L23.75 20C24.2473 20 24.7242 20.1975 25.0758 20.5492C25.4275 20.9008 25.625 21.3777 25.625 21.875C25.625 22.3723 25.4275 22.8492 25.0758 23.2008C24.7242 23.5525 24.2473 23.75 23.75 23.75L21.875 23.75L21.875 32.36Z" fill="#000000" fill-opacity="1.000000" fill-rule="nonzero"/>
	</g>
</svg>
