<svg width="40.000000" height="40.000000" viewBox="0 0 40 40" fill="none" xmlns="http://www.w3.org/2000/svg" xmlns:xlink="http://www.w3.org/1999/xlink">
	<desc>
			Created with Pixso.
	</desc>
	<defs>
		<clipPath id="clip2_514">
			<rect id="ri:instagram-fill" width="28.000000" height="28.000000" transform="translate(6.000000 6.000000)" fill="white" fill-opacity="0"/>
		</clipPath>
	</defs>
	<circle id="Ellipse 11" cx="20.000000" cy="20.000000" r="20.000000" fill="#E9E9E9" fill-opacity="1.000000"/>
	<rect id="ri:instagram-fill" width="28.000000" height="28.000000" transform="translate(6.000000 6.000000)" fill="#FFFFFF" fill-opacity="0"/>
	<g clip-path="url(#clip2_514)">
		<path id="Vector" d="M21.1993 8.33325C22.5118 8.33679 23.178 8.34375 23.7531 8.36011L23.9795 8.36829C24.2408 8.37756 24.4987 8.38928 24.8102 8.4032C26.0515 8.46155 26.8985 8.65759 27.6417 8.9458C28.4117 9.24207 29.0603 9.64343 29.709 10.2909C30.3022 10.8741 30.7613 11.5796 31.0541 12.3583C31.3423 13.1014 31.5383 13.9484 31.5966 15.1909C31.6107 15.5012 31.6223 15.759 31.6317 16.0216L31.6386 16.2479C31.6562 16.8219 31.6631 17.488 31.6655 18.8005L31.6667 19.6709L31.6667 21.1992C31.6695 22.0502 31.6606 22.9012 31.6398 23.752L31.6328 23.9783C31.6235 24.2407 31.6118 24.4985 31.5978 24.809C31.5395 26.0514 31.3412 26.8972 31.0541 27.6416C30.7621 28.4207 30.3029 29.1263 29.709 29.7089C29.1256 30.302 28.4202 30.761 27.6417 31.0541C26.8985 31.3423 26.0515 31.5382 24.8102 31.5966C24.5333 31.6096 24.2564 31.6213 23.9795 31.6316L23.7531 31.6385C23.178 31.6549 22.5118 31.6631 21.1993 31.6654L20.329 31.6666L18.8018 31.6666C17.9504 31.6696 17.0991 31.6605 16.248 31.6398L16.0216 31.6327C15.7447 31.6223 15.4678 31.6102 15.191 31.5966C13.9496 31.5382 13.1027 31.3423 12.3583 31.0541C11.5798 30.7617 10.8746 30.3026 10.2921 29.7089C9.69836 29.126 9.23892 28.4204 8.9458 27.6416C8.65765 26.8984 8.46164 26.0514 8.40332 24.809C8.39032 24.5321 8.37866 24.2552 8.36832 23.9783L8.36249 23.752C8.34097 22.9012 8.33127 22.0503 8.33331 21.1992L8.33331 18.8005C8.33005 17.9496 8.33862 17.0986 8.35898 16.2479L8.36716 16.0216C8.3765 15.759 8.38815 15.5012 8.40216 15.1909C8.46048 13.9484 8.65649 13.1025 8.94464 12.3583C9.23761 11.5789 9.698 10.8732 10.2933 10.2909C10.8756 9.69763 11.5803 9.23853 12.3583 8.9458C13.1027 8.65759 13.9485 8.46155 15.191 8.4032C15.5013 8.38928 15.7603 8.37756 16.0216 8.36829L16.248 8.36121C17.0987 8.34058 17.9497 8.33154 18.8007 8.33447L21.1993 8.33325ZM20 14.1666C18.4529 14.1666 16.9691 14.7811 15.8752 15.8751C14.7812 16.9691 14.1667 18.4529 14.1667 19.9999C14.1667 21.547 14.7812 23.0308 15.8752 24.1248C16.9691 25.2186 18.4529 25.8333 20 25.8333C21.5471 25.8333 23.0308 25.2186 24.1248 24.1248C25.2187 23.0308 25.8333 21.547 25.8333 19.9999C25.8333 18.4529 25.2187 16.9691 24.1248 15.8751C23.0308 14.7811 21.5471 14.1666 20 14.1666ZM20 16.4999C20.4596 16.4999 20.9147 16.5903 21.3394 16.7661C21.7641 16.9419 22.15 17.1997 22.475 17.5247C22.8001 17.8496 23.058 18.2354 23.2339 18.66C23.4099 19.0846 23.5005 19.5397 23.5005 19.9994C23.5006 20.459 23.4102 20.9141 23.2344 21.3387C23.0585 21.7634 22.8008 22.1493 22.4759 22.4744C22.1509 22.7994 21.7651 23.0573 21.3405 23.2333C20.9159 23.4092 20.4608 23.4999 20.0012 23.4999C19.0729 23.4999 18.1826 23.1312 17.5263 22.4747C16.8699 21.8184 16.5012 20.9282 16.5012 19.9999C16.5012 19.0717 16.8699 18.1814 17.5263 17.525C18.1826 16.8687 19.0729 16.4999 20.0012 16.4999L20 16.4999ZM26.1262 12.4166C25.7394 12.4166 25.3684 12.5702 25.0949 12.8438C24.8215 13.1172 24.6678 13.4882 24.6678 13.8749C24.6678 14.2617 24.8215 14.6326 25.0949 14.9061C25.3684 15.1796 25.7394 15.3333 26.1262 15.3333C26.5129 15.3333 26.8839 15.1796 27.1573 14.9061C27.4308 14.6326 27.5845 14.2617 27.5845 13.8749C27.5845 13.4882 27.4308 13.1172 27.1573 12.8438C26.8839 12.5702 26.5129 12.4166 26.1262 12.4166Z" fill="#000000" fill-opacity="1.000000" fill-rule="nonzero"/>
	</g>
</svg>
