<svg width="36.000000" height="36.000000" viewBox="0 0 36 36" fill="none" xmlns="http://www.w3.org/2000/svg" xmlns:xlink="http://www.w3.org/1999/xlink">
	<desc>
			Created with Pixso.
	</desc>
	<defs>
		<clipPath id="clip2_533">
			<rect id="Bold / Mesages, Conversation /  Letter" width="24.000000" height="24.000000" transform="translate(6.000000 6.000000)" fill="white" fill-opacity="0"/>
		</clipPath>
	</defs>
	<circle id="Ellipse 20" cx="18.000000" cy="18.000000" r="18.000000" fill="#E9E9E9" fill-opacity="1.000000"/>
	<g clip-path="url(#clip2_533)">
		<path id="Vector" d="M9.17163 11.1716C8 12.3431 8 14.2288 8 18C8 21.7712 8 23.6569 9.17163 24.8284C10.3431 26 12.2288 26 16 26L20 26C23.7712 26 25.6569 26 26.8284 24.8284C28 23.6569 28 21.7712 28 18C28 14.2288 28 12.3431 26.8284 11.1716C25.6569 10 23.7712 10 20 10L16 10C12.2288 10 10.3431 10 9.17163 11.1716ZM24.5762 13.5199C24.8413 13.838 24.7983 14.311 24.4801 14.5762L22.2837 16.4066C21.3973 17.1453 20.6788 17.7439 20.0448 18.1517C19.3843 18.5765 18.7411 18.8448 18 18.8448C17.2589 18.8448 16.6157 18.5765 15.9552 18.1517C15.3212 17.7439 14.6027 17.1453 13.7163 16.4066L11.5199 14.5762C11.2017 14.311 11.1587 13.838 11.4238 13.5199C11.689 13.2017 12.162 13.1587 12.4801 13.4238L14.639 15.2229C15.572 16.0004 16.2197 16.5385 16.7666 16.8901C17.2959 17.2306 17.6549 17.3448 18 17.3448C18.3451 17.3448 18.7041 17.2306 19.2334 16.8901C19.7803 16.5385 20.428 16.0004 21.361 15.2229L23.5199 13.4238C23.838 13.1587 24.311 13.2017 24.5762 13.5199Z" fill="#000000" fill-opacity="1.000000" fill-rule="evenodd"/>
	</g>
</svg>
