<svg width="24.000000" height="24.000000" viewBox="0 0 24 24" fill="none" xmlns="http://www.w3.org/2000/svg" xmlns:xlink="http://www.w3.org/1999/xlink">
	<desc>
			Created with Pixso.
	</desc>
	<defs>
		<clipPath id="clip1_418">
			<rect id="Bold / Messages, Coversation / Chat Square Dots Chat Dots" width="24.000000" height="24.000000" fill="white" fill-opacity="0"/>
		</clipPath>
	</defs>
	<g clip-path="url(#clip1_418)">
		<path id="Vector" d="M13.0867 21.3877L13.6288 20.4718C14.0492 19.7614 14.2595 19.4062 14.5972 19.2098C14.9349 19.0134 15.36 19.0061 16.2104 18.9915C17.4658 18.9698 18.2531 18.8929 18.9134 18.6194C20.1385 18.1119 21.1119 17.1385 21.6194 15.9134C22 14.9946 22 13.8297 22 11.5L22 10.5C22 7.22656 22 5.58984 21.2632 4.38751C20.8509 3.71472 20.2853 3.14908 19.6125 2.73679C18.4101 2 16.7734 2 13.5 2L10.5 2C7.22656 2 5.58986 2 4.38751 2.73679C3.71474 3.14908 3.14908 3.71472 2.7368 4.38751C2 5.58984 2 7.22656 2 10.5L2 11.5C2 13.8297 2 14.9946 2.3806 15.9134C2.88808 17.1385 3.86143 18.1119 5.08658 18.6194C5.74689 18.8929 6.53423 18.9698 7.78958 18.9915C8.63992 19.0061 9.06509 19.0134 9.40279 19.2098C9.74049 19.4062 9.95073 19.7614 10.3712 20.4718L10.9133 21.3877C11.3965 22.204 12.6035 22.204 13.0867 21.3877ZM16 12C16.5523 12 17 11.5523 17 11C17 10.4477 16.5523 10 16 10C15.4477 10 15 10.4477 15 11C15 11.5523 15.4477 12 16 12ZM13 11C13 11.5523 12.5523 12 12 12C11.4477 12 11 11.5523 11 11C11 10.4477 11.4477 10 12 10C12.5523 10 13 10.4477 13 11ZM8 12C8.55229 12 9 11.5523 9 11C9 10.4477 8.55229 10 8 10C7.44772 10 7 10.4477 7 11C7 11.5523 7.44772 12 8 12Z" fill="#000000" fill-opacity="1.000000" fill-rule="evenodd"/>
	</g>
</svg>
