<svg width="24.000000" height="24.000000" viewBox="0 0 24 24" fill="none" xmlns="http://www.w3.org/2000/svg" xmlns:xlink="http://www.w3.org/1999/xlink">
	<desc>
			Created with Pixso.
	</desc>
	<defs>
		<clipPath id="clip1_280">
			<rect rx="5.000000" width="24.000000" height="24.000000" fill="white" fill-opacity="0"/>
		</clipPath>
	</defs>
	<g clip-path="url(#clip1_280)">
		<path d="M1.75 10.0004L1.75 14.0004C1.75 16.8288 1.75 18.243 2.62869 19.1216C2.84601 19.339 3.09613 19.5026 3.39227 19.6257C3.38556 19.5812 3.37921 19.5366 3.3732 19.492C3.24985 18.5745 3.24991 17.4288 3.25 16.0991L3.25 8.00031L3.25 7.90155L3.25 7.90155C3.24991 6.57184 3.24985 5.42609 3.3732 4.50861C3.37921 4.46399 3.38556 4.41943 3.39227 4.375C3.0961 4.49811 2.84601 4.66168 2.62869 4.87903C1.75 5.75769 1.75 7.17194 1.75 10.0004ZM21.75 10.0004L21.75 14.0004C21.75 16.8288 21.75 18.243 20.8713 19.1216C20.654 19.339 20.4039 19.5026 20.1077 19.6257C20.1144 19.5812 20.1208 19.5366 20.1268 19.492C20.2502 18.5745 20.2501 17.4288 20.25 16.0991L20.25 7.90155C20.2501 6.57184 20.2502 5.42609 20.1268 4.50861C20.1208 4.46399 20.1144 4.41943 20.1077 4.375C20.4039 4.49811 20.654 4.66168 20.8713 4.87903C21.75 5.75769 21.75 7.17194 21.75 10.0004Z" fill="#000000" fill-opacity="1.000000" fill-rule="evenodd"/>
		<path d="M5.62869 2.87866C4.75 3.75739 4.75 5.17157 4.75 8L4.75 16C4.75 18.8284 4.75 20.2426 5.62869 21.1213C6.50735 22 7.92157 22 10.75 22L12.75 22C15.5784 22 16.9926 22 17.8713 21.1213C18.75 20.2426 18.75 18.8284 18.75 16L18.75 8C18.75 5.17157 18.75 3.75739 17.8713 2.87866C16.9926 2 15.5784 2 12.75 2L10.75 2C7.92157 2 6.50735 2 5.62869 2.87866ZM8 17C8 16.5858 8.33578 16.25 8.75 16.25L11.75 16.25C12.1642 16.25 12.5 16.5858 12.5 17C12.5 17.4142 12.1642 17.75 11.75 17.75L8.75 17.75C8.33578 17.75 8 17.4142 8 17ZM8.75 12.25C8.33578 12.25 8 12.5858 8 13C8 13.4142 8.33578 13.75 8.75 13.75L14.75 13.75C15.1642 13.75 15.5 13.4142 15.5 13C15.5 12.5858 15.1642 12.25 14.75 12.25L8.75 12.25ZM8 9C8 8.58582 8.33578 8.25 8.75 8.25L14.75 8.25C15.1642 8.25 15.5 8.58582 15.5 9C15.5 9.41418 15.1642 9.75 14.75 9.75L8.75 9.75C8.33578 9.75 8 9.41418 8 9Z" fill="#000000" fill-opacity="1.000000" fill-rule="evenodd"/>
	</g>
</svg>
