<svg width="16.000000" height="16.000000" viewBox="0 0 16 16" fill="currentColor" xmlns="http://www.w3.org/2000/svg" xmlns:xlink="http://www.w3.org/1999/xlink">
	<desc>
			Created with Pixso.
	</desc>
	<defs>
		<clipPath id="clip2_74">
			<rect id="Frame" width="16.000000" height="16.000000" fill="white" fill-opacity="0"/>
		</clipPath>
	</defs>
	<rect id="Frame" width="16.000000" height="16.000000" fill="#FFFFFF" fill-opacity="0"/>
	<g clip-path="url(#clip2_74)">
		<path id="Vector" d="M5.49533 4.89328L1.242 5.50995L1.16666 5.52528C1.05261 5.55556 0.948654 5.61555 0.865387 5.69915C0.78212 5.78275 0.722534 5.88694 0.692703 6.0011C0.662872 6.11526 0.663879 6.23529 0.695618 6.34893C0.727356 6.46257 0.788681 6.56576 0.873337 6.64795L3.95465 9.64728L3.228 13.8839L3.21933 13.9573C3.21234 14.0752 3.23685 14.1929 3.29028 14.2983C3.34375 14.4037 3.42426 14.4929 3.52356 14.557C3.62286 14.621 3.7374 14.6575 3.85544 14.6627C3.97348 14.6679 4.09076 14.6416 4.19534 14.5866L7.99933 12.5866L11.7947 14.5866L11.8613 14.6173C11.9714 14.6606 12.091 14.6739 12.2078 14.6558C12.3247 14.6377 12.4347 14.5888 12.5264 14.5141C12.6181 14.4395 12.6884 14.3418 12.7299 14.231C12.7714 14.1203 12.7827 14.0005 12.7627 13.8839L12.0353 9.64728L15.118 6.64728L15.17 6.59061C15.2443 6.49913 15.293 6.38959 15.3112 6.27315C15.3293 6.15671 15.3163 6.03754 15.2734 5.92776C15.2305 5.818 15.1593 5.72157 15.067 5.64829C14.9747 5.57501 14.8646 5.5275 14.748 5.51061L10.4947 4.89328L8.59332 1.03995C8.5383 0.928307 8.45316 0.83429 8.34744 0.768555C8.24176 0.702812 8.11978 0.667969 7.99533 0.667969C7.87088 0.667969 7.7489 0.702812 7.64319 0.768555C7.53751 0.83429 7.45236 0.928307 7.39734 1.03995L5.49533 4.89328Z" fill="inherit" fill-opacity="1.000000" fill-rule="nonzero"/>
		<path id="Vector" d="M1.242 5.50995L1.16666 5.52528C1.05261 5.55556 0.948654 5.61555 0.865387 5.69915C0.78212 5.78275 0.722534 5.88694 0.692703 6.0011C0.662872 6.11526 0.663879 6.23529 0.695618 6.34893C0.727356 6.46257 0.788681 6.56576 0.873337 6.64795L3.95465 9.64728L3.228 13.8839L3.21933 13.9573C3.21234 14.0752 3.23685 14.1929 3.29028 14.2983C3.34375 14.4037 3.42426 14.4929 3.52356 14.557C3.62286 14.621 3.7374 14.6575 3.85544 14.6627C3.97348 14.6679 4.09076 14.6416 4.19534 14.5866L7.99933 12.5866L11.7947 14.5866L11.8613 14.6173C11.9714 14.6606 12.091 14.6739 12.2078 14.6558C12.3247 14.6377 12.4347 14.5888 12.5264 14.5141C12.6181 14.4395 12.6884 14.3418 12.7299 14.231C12.7714 14.1203 12.7827 14.0005 12.7627 13.8839L12.0353 9.64728L15.118 6.64728L15.17 6.59061C15.2443 6.49913 15.293 6.38959 15.3112 6.27315C15.3293 6.15671 15.3163 6.03754 15.2734 5.92776C15.2305 5.818 15.1593 5.72157 15.067 5.64829C14.9747 5.57501 14.8646 5.5275 14.748 5.51061L10.4947 4.89328L8.59332 1.03995C8.5383 0.928307 8.45316 0.83429 8.34744 0.768555C8.24176 0.702812 8.11978 0.667969 7.99533 0.667969C7.87088 0.667969 7.7489 0.702812 7.64319 0.768555C7.53751 0.83429 7.45236 0.928307 7.39734 1.03995L5.49533 4.89328L1.242 5.50995Z" stroke="#C5C5C5" stroke-opacity="1.000000" stroke-width="0.000000" stroke-linejoin="round"/>
	</g>
</svg>
