<svg width="40.000000" height="40.000000" viewBox="0 0 40 40" fill="none" xmlns="http://www.w3.org/2000/svg" xmlns:xlink="http://www.w3.org/1999/xlink">
	<desc>
			Created with Pixso.
	</desc>
	<defs>
		<clipPath id="clip2_528">
			<rect id="ic:baseline-telegram" width="29.000000" height="29.000000" transform="translate(6.000000 6.000000)" fill="white" fill-opacity="0"/>
		</clipPath>
	</defs>
	<circle id="Ellipse 11" cx="20.000000" cy="20.000000" r="20.000000" fill="#E9E9E9" fill-opacity="1.000000"/>
	<rect id="ic:baseline-telegram" width="29.000000" height="29.000000" transform="translate(6.000000 6.000000)" fill="#FFFFFF" fill-opacity="0"/>
	<g clip-path="url(#clip2_528)">
		<path id="Vector" d="M20.5 8.41675C13.83 8.41675 8.41663 13.8301 8.41663 20.5001C8.41663 27.17 13.83 32.5834 20.5 32.5834C27.17 32.5834 32.5833 27.17 32.5833 20.5001C32.5833 13.8301 27.17 8.41675 20.5 8.41675ZM26.1066 16.6334C25.9254 18.5426 25.14 23.1826 24.7412 25.3213C24.572 26.2275 24.2337 26.5297 23.9195 26.5659C23.2187 26.6263 22.687 26.1067 22.0104 25.6597C20.947 24.9589 20.3429 24.5238 19.3158 23.8472C18.1195 23.0618 18.8929 22.6267 19.5816 21.9259C19.7629 21.7446 22.8562 18.9292 22.9166 18.6755C22.925 18.6371 22.9239 18.5972 22.9134 18.5592C22.9028 18.5214 22.8832 18.4866 22.8562 18.458C22.7837 18.3976 22.687 18.4218 22.6025 18.4338C22.4937 18.458 20.802 19.5818 17.5033 21.8051C17.02 22.1313 16.585 22.3005 16.1983 22.2885C15.7633 22.2764 14.9416 22.0468 14.3254 21.8413C13.5641 21.5996 12.972 21.4668 13.0204 21.0438C13.0445 20.8263 13.3466 20.6089 13.9145 20.3793C17.4429 18.8446 19.787 17.8297 20.9591 17.3463C24.3183 15.9447 25.007 15.703 25.4662 15.703C25.5629 15.703 25.7924 15.7272 25.9375 15.848C26.0583 15.9447 26.0945 16.0776 26.1066 16.1742C26.0945 16.2467 26.1187 16.4642 26.1066 16.6334Z" fill="#000000" fill-opacity="1.000000" fill-rule="nonzero"/>
	</g>
</svg>
