<svg width="40.000000" height="40.000000" viewBox="0 0 40 40" fill="none" xmlns="http://www.w3.org/2000/svg" xmlns:xlink="http://www.w3.org/1999/xlink">
	<desc>
			Created with Pixso.
	</desc>
	<defs>
		<clipPath id="clip2_524">
			<rect id="ri:whatsapp-fill" width="28.000000" height="28.000000" transform="translate(6.000000 6.000000)" fill="white" fill-opacity="0"/>
		</clipPath>
	</defs>
	<circle id="Ellipse 11" cx="20.000000" cy="20.000000" r="20.000000" fill="#E9E9E9" fill-opacity="1.000000"/>
	<rect id="ri:whatsapp-fill" width="28.000000" height="28.000000" transform="translate(6.000000 6.000000)" fill="#FFFFFF" fill-opacity="0"/>
	<g clip-path="url(#clip2_524)">
		<path id="Vector" d="M20.0012 8.33325C26.4447 8.33325 31.6678 13.5564 31.6678 19.9999C31.6678 26.4434 26.4447 31.6666 20.0012 31.6666C17.9394 31.6699 15.9139 31.1243 14.1328 30.0857L8.33916 31.6666L9.91649 25.8706C8.87709 24.089 8.33104 22.0626 8.33449 19.9999C8.33449 13.5564 13.5577 8.33325 20.0012 8.33325ZM16.0252 14.5166L15.7918 14.5259C15.6408 14.5352 15.4931 14.5748 15.3578 14.6426C15.2313 14.7142 15.1157 14.8038 15.0148 14.9086C14.8748 15.0404 14.7955 15.1548 14.7103 15.2656C14.2788 15.8267 14.0465 16.5155 14.05 17.2233C14.0523 17.7949 14.2017 18.3514 14.435 18.8717C14.9122 19.9241 15.6973 21.0382 16.7333 22.0708C16.983 22.3192 17.228 22.569 17.4917 22.801C18.7789 23.9344 20.313 24.7518 21.9716 25.1881L22.6343 25.2896C22.8502 25.3013 23.066 25.2849 23.283 25.2744C23.6228 25.2568 23.9545 25.1649 24.2548 25.0049C24.4076 24.9263 24.5567 24.8406 24.7017 24.7483C24.7017 24.7483 24.7518 24.7156 24.8475 24.6433C25.005 24.5266 25.1018 24.4437 25.2325 24.3073C25.3293 24.2069 25.4133 24.0891 25.4775 23.955C25.5685 23.7648 25.6595 23.402 25.6968 23.0997C25.7248 22.8688 25.7167 22.7428 25.7132 22.6646C25.7085 22.5398 25.6047 22.4103 25.4915 22.3555L24.8125 22.0509C24.8125 22.0509 23.7975 21.6088 23.1768 21.3264C23.1119 21.2981 23.0423 21.2819 22.9715 21.2786C22.8917 21.2704 22.811 21.2794 22.735 21.3049C22.6589 21.3304 22.5892 21.3721 22.5305 21.4268C22.5247 21.4244 22.4465 21.491 21.603 22.5129C21.5546 22.578 21.4879 22.6272 21.4114 22.6542C21.335 22.6812 21.2522 22.6848 21.1737 22.6646C21.0977 22.6442 21.0232 22.6185 20.9508 22.5876C20.8062 22.527 20.756 22.5035 20.6568 22.4615C19.9872 22.1694 19.3673 21.7745 18.8193 21.2914C18.6723 21.1631 18.5358 21.0231 18.3958 20.8877C17.9368 20.4482 17.5368 19.9509 17.2058 19.4084L17.137 19.2976C17.0876 19.2231 17.0476 19.1428 17.018 19.0585C16.9737 18.887 17.0892 18.7493 17.0892 18.7493C17.0892 18.7493 17.3727 18.439 17.5045 18.2709C17.6328 18.1075 17.7413 17.949 17.8113 17.8357C17.949 17.6141 17.9922 17.3866 17.9198 17.2104C17.5932 16.4125 17.2548 15.6179 16.9072 14.8292C16.8383 14.673 16.6342 14.5609 16.4487 14.5387C16.3857 14.5317 16.3227 14.5248 16.2597 14.5201C16.103 14.5123 15.946 14.5139 15.7895 14.5248L16.0252 14.5166Z" fill="#000000" fill-opacity="1.000000" fill-rule="nonzero"/>
	</g>
</svg>
